/* XPM */
/* $Id: pixmaped-filled-oval.xpm,v 1.1 1999/02/26 22:37:46 root Exp $ */
static char * pixmaped_filled_oval_xpm[] = {
"20 20 6 1",
"  c None",
"! c white",
"# c gray60",
"$ c black",
"% c gray33",
"& c DarkViolet",
"                    ",
"                    ",
"       #######      ",
"      #$$$$$$##     ",
"     $$$$$$$$$$#    ",
"    $$%&&&&&&%$$#   ",
"  !#$%&&&&&&&&%$##  ",
"  !$$&&&&&&&&&&$$#  ",
"  !$$&&&&&&&&&&$$#  ",
"  !$$&&&&&&&&&&$$#  ",
"  !$$&&&&&&&&&&$$#  ",
"  !$$&&&&&&&&&&$$#  ",
"  !$$&&&&&&&&&&$$#  ",
"  !#$%&&&&&&&&%$#   ",
"   !$$%&&&&&&%$$    ",
"    !$$$$$$$$$$     ",
"     !#$$$$$$#      ",
"      !!!!!!!       ",
"                    ",
"                    ",
};
