/* XPM */
/* $Id: pixmaped-rectangle.xpm,v 1.1 1999/02/03 21:11:17 root Exp $ */
static char * pixmaped_rectangle_xpm[] = {
"20 20 4 1",
"  c None",
"! c white",
"# c black",
"$ c gray75",
"                    ",
"                    ",
"    $$$$$$$$$$$$$$  ",
"   ##############$  ",
"  !##############$  ",
"  !##$!!!!!!!!!##$  ",
"  !##$        !##$  ",
"  !##$        !##$  ",
"  !##$        !##$  ",
"  !##$        !##$  ",
"  !##$        !##$  ",
"  !##$        !##$  ",
"  !##$        !##$  ",
"  !##$        !##$  ",
"  !##$$$$$$$$$$##$  ",
"  !##############$  ",
"  !##############   ",
"  !!!!!!!!!!!!!!    ",
"                    ",
"                    ",
};
