/* XPM */
/* $Id: pixmaped-filled-rectangle.xpm,v 1.1 1999/02/26 22:37:46 root Exp $ */
static char * pixmaped_filled_rectangle_xpm[] = {
"20 20 5 1",
"  c None",
"! c white",
"# c black",
"$ c gray75",
"% c DarkViolet",
"                    ",
"                    ",
"    $$$$$$$$$$$$$$  ",
"   ##############$  ",
"  !##############$  ",
"  !##%%%%%%%%%%##$  ",
"  !##%%%%%%%%%%##$  ",
"  !##%%%%%%%%%%##$  ",
"  !##%%%%%%%%%%##$  ",
"  !##%%%%%%%%%%##$  ",
"  !##%%%%%%%%%%##$  ",
"  !##%%%%%%%%%%##$  ",
"  !##%%%%%%%%%%##$  ",
"  !##%%%%%%%%%%##$  ",
"  !##%%%%%%%%%%##$  ",
"  !##############$  ",
"  !##############   ",
"  !!!!!!!!!!!!!!    ",
"                    ",
"                    ",
};
