/* XPM */
/* $Id: pixmaped-brush.xpm,v 1.1 1999/01/31 21:08:52 root Exp $ */
static char * pixmaped_brush_xpm[] = {
"20 20 6 1",
"  c None",
"! c black",
"# c green",
"$ c white",
"% c brown1",
"& c #FF0036",
"                    ",
"                    ",
"                    ",
"              &&    ",
"             %%&&   ",
"            %%&%&   ",
"           %%&%%    ",
"          %%&%%     ",
"         %%&%%      ",
"    $$$$%%&%%       ",
"   !##$$%&%%        ",
"  !#!##$$%%         ",
"  #!#!##$$$         ",
"  !#!#!##$$         ",
"  #!#!#!##$         ",
"   #!#!#!#$         ",
"    #!#!#!          ",
"     #!#!           ",
"                    ",
"                    ",
};
