/* XPM */
/* $Id: pixmaped-palette.xpm,v 1.5 1999/01/31 12:22:00 root Exp $ */
/* Copyright (c) Mark Summerfield 1999  All Rights Reserved  */
/* May be used/distributed under the same terms as Perl  */

static char * palette_xpm[] = {
"20 20 2 1",
"  c None",
"! c gray85",
"!!!!!!!!!!!!!!!!!!!!",
"!!!!!!!!!!!!!!!!!!!!",
"!!!!!         !!!!!!",
"!!!!            !!!!",
"!!!              !!!",
"!!!              !!!",
"!!                !!",
"!!                !!",
"!!                !!",
"!!                !!",
"!!                !!",
"!!                !!",
"!!                !!",
"!!                !!",
"!!!              !!!",
"!!!              !!!",
"!!!!            !!!!",
"!!!!!!        !!!!!!",
"!!!!!!!!!!!!!!!!!!!!",
"!!!!!!!!!!!!!!!!!!!!",
};
