/* XPM */
/* $Id: pixmaped-flip-vertical.xpm,v 1.1 1999/01/31 18:59:19 root Exp $ */
static char * pixmaped_flip_vertical_xpm[] = {
"20 20 3 1",
"  c None",
"! c SteelBlue3",
"# c black",
"                    ",
"                    ",
"         ##         ",
"         ##         ",
"         ##         ",
"         ##         ",
"         ##         ",
"         ##         ",
"         ##         ",
"  !!!!   ##   !!!!  ",
"  !!!    ##    !!!  ",
"  !!!    ##    !!!  ",
"  !!!!   ##   !!!!  ",
"  ! !!!  ##  !!! !  ",
"     !!!!!!!!!!     ",
"      !!!!!!!!      ",
"         ##         ",
"         ##         ",
"                    ",
"                    ",
};
