/* XPM */
/* $Id: pixmaped-rotate.xpm,v 1.1 1999/02/27 19:43:40 root Exp $ */
static char * pixmaped_rotate_270_xpm[] = {
"20 20 2 1",
"  c None",
"! c SteelBlue3",
"                    ",
"                    ",
"           !        ",
"           !!       ",
"           !!!      ",
"       !!!!!!!!     ",
"      !!!!!!!!!!    ",
"     !!!!!!!!!!     ",
"    !!!!   !!!      ",
"    !!!    !!       ",
"    !!!    !        ",
"    !!!      !!!    ",
"    !!!      !!!    ",
"    !!!      !!!    ",
"    !!!!    !!!!    ",
"     !!!!!!!!!!     ",
"      !!!!!!!!      ",
"       !!!!!!       ",
"                    ",
"                    ",
};
