/* XPM */
/* $Id: pixmaped-flip-horizontal.xpm,v 1.2 1999/01/31 18:59:19 root Exp $ */
static char * pixmaped_flip_horizontal_xpm[] = {
"20 20 3 1",
"  c None",
"! c black",
"# c SteelBlue3",
"                    ",
"                    ",
"      #####         ",
"       ####         ",
"      #####         ",
"     ###  #         ",
"    ###             ",
"    ##              ",
"    ##              ",
"  !!##!!!!!!!!!!!!  ",
"  !!##!!!!!!!!!!!!  ",
"    ##              ",
"    ##              ",
"    ###             ",
"     ###  #         ",
"      #####         ",
"       ####         ",
"      #####         ",
"                    ",
"                    ",
};
