/* XPM */
/* $Id: pixmaped-oval.xpm,v 1.1 1999/02/26 22:37:46 root Exp $ */
static char * pixmaped_oval_xpm[] = {
"20 20 5 1",
"  c None",
"! c white",
"# c gray60",
"$ c black",
"% c gray33",
"                    ",
"                    ",
"       #######      ",
"      #$$$$$$##     ",
"     $$$$$$$$$$#    ",
"    $$%!!!!!!%$$#   ",
"  !#$%!      !%$##  ",
"  !$$#        !$$#  ",
"  !$$#        !$$#  ",
"  !$$#        !$$#  ",
"  !$$#        !$$#  ",
"  !$$#        !$$#  ",
"  !$$#        #$$#  ",
"  !#$%#      #%$#   ",
"   !$$%######%$$    ",
"    !$$$$$$$$$$     ",
"     !#$$$$$$#      ",
"      !!!!!!!       ",
"                    ",
"                    ",
};
