/* XPM */
/* $Id: pixmaped-icon-16x16.xpm,v 1.1 1999/02/21 19:57:32 root Exp $ */
static char * pixmaped_icon_16x16_xpm[] = {
"16 16 5 1",
"  c None",
"! c brown1",
"# c black",
"$ c white",
"% c #FF0036",
"                ",
"            !!  ",
"           !!%! ",
"          !!%!! ",
"         !!%!!  ",
"        !!%!!   ",
"       !!%!!    ",
"      !!%!!     ",
"     !!%!!      ",
"    !!%!!       ",
"   !!!!!        ",
"  !$$!!         ",
"  ##$!          ",
"  ##!           ",
"                ",
"                ",
};
