/* XPM */
/* $Id: pixmaped-resize-K.xpm,v 1.3 1999/02/21 10:08:51 root Exp $ */
static char * pixmaped_resize_K_xpm[] = {
"32 32 5 1",
"  c None",
"! c blue",
"# c black",
"$ c white",
"% c #00AF00",
"                                ",
"                                ",
"        ################        ",
"        #$$$$$$$$$$$$$$#        ",
"        #$$$$$$$$$$$$$$#        ",
"        #$$$$$$$$$$$$$$#        ",
"        #$$$$$$$$$$$$$$#        ",
"        #$$$$$$$$$$$$$$#        ",
"        #$$$$$$$$$$$$$$#        ",
"        #$$$$$$$$$$$$$$#        ",
"        #$$$$$$$$$$$$$$#        ",
"        #$$$$$$$$$$$$$$#        ",
"        #$$$$$$$$$$$$$$#        ",
"        #$$$$$$$$$$$$$$#        ",
"        #$$$$$$$$$$$$$$#        ",
"        #$$$$$$$$$$$$$$#        ",
"        #$$$$$$$$$$$$$$#        ",
"        #$$$$$$$$$$$$$$#        ",
"        #$$$$$$$$$$$$$$#        ",
"        #$$$$$$$$$$$$$$#        ",
"     !!!!!!!!!!!!!!!!!!!!!!     ",
"        #            %%#        ",
"        #           %% #        ",
"        #          %%  #        ",
"        #         %%   #        ",
"        #%%      %%    #        ",
"        # %%    %%     #        ",
"        #  %%  %%      #        ",
"        #   %%%%       #        ",
"        ################        ",
"                                ",
"                                ",
};
