/* XPM */
/* $Id: pixmaped-pencil.xpm,v 1.2 1999/01/31 18:59:19 root Exp $ */
static char * pixmaped_pencil_xpm[] = {
"20 20 5 1",
"  c None",
"! c brown1",
"# c black",
"$ c white",
"% c #FF0036",
"                    ",
"                    ",
"                    ",
"              %%    ",
"             !!%%   ",
"            !!%!%   ",
"           !!%!!    ",
"          !!%!!     ",
"         !!%!!      ",
"        !!%!!       ",
"       !!%!!        ",
"      !!%!!         ",
"     !!%!!          ",
"    !!!!!           ",
"   !$$!!            ",
"   ##$!             ",
"   ##!              ",
"                    ",
"                    ",
"                    ",
};
