/* XPM */
/* $Id: pixmaped-transparent.xpm,v 1.4 1999/08/08 15:47:20 root Exp root $ */
/* Copyright (c) Mark Summerfield 1999  All Rights Reserved  */
/* May be used/distributed under the GPL  */

static char * pixmaped_transparent_xpm[] = {
"20 20 3 1",
"  c None",
"! c gray85",
"# c gray60",
"!!!!!!!!!!!!!!!!!!!!",
"!!!!!!!!!!!!!!!!!!!!",
"!!!!!!########!!!!!!",
"!!!!############!!!!",
"!!!##############!!!",
"!!!##############!!!",
"!!###          ###!!",
"!!###          ###!!",
"!!#######  #######!!",
"!!#######  #######!!",
"!!#######  #######!!",
"!!#######  #######!!",
"!!#######  #######!!",
"!!#######  #######!!",
"!!!######  ######!!!",
"!!!######  ######!!!",
"!!!!############!!!!",
"!!!!!!########!!!!!!",
"!!!!!!!!!!!!!!!!!!!!",
"!!!!!!!!!!!!!!!!!!!!",
};
