/* XPM */
/* $Id: pixmaped-fill.xpm,v 1.1 1999/02/03 21:11:17 root Exp $ */
static char * pixmaped_fill_xpm[] = {
"20 20 6 1",
"  c None",
"! c green",
"# c black",
"$ c #770000",
"% c #D03900",
"& c brown1",
"                    ",
"                    ",
"            &&&&    ",
"        $$$%&&&&&   ",
"       $%%$%%  &&&  ",
"      $%%$$&%%  &&  ",
"      $%$%%%$%% &&  ",
"     !$$$%%%$%%%&&  ",
"    !#%%%%%$%%$%%%  ",
"    #! %%$$%%%$%%%  ",
"   #!   %%%%%$%%$%  ",
"   !#!   %%$$%%&$%  ",
"   #!#!   %%%%&$%$  ",
"   !#!#!   %%$$%%$  ",
"   #!#!#!   %%%%$   ",
"   !#!#!#!   %$$    ",
"  !#!#!#!#!         ",
"  #!#!#!#!#!        ",
"                    ",
"                    ",
};
