/* XPM */
/* $Id: pixmaped-swapcolour.xpm,v 1.1 1999/03/20 13:32:36 root Exp $ */
static char * pixmaped_swapcolour_xpm[] = {
"20 20 5 1",
"  c None",
"! c red",
"# c blue",
"$ c yellow",
"% c green3",
"                    ",
"                    ",
"     #########      ",
"    ###########%    ",
"   !!!!!#######%%   ",
"  !!!!!!#######%%%  ",
"  !!!!!!#######%%%  ",
"  !!!!!!    %%%%%%  ",
"  !!!!!      %%%%%  ",
"  !!!!!      %%%%%  ",
"  !!!!!      %%%%%  ",
"  !!!!!      %%%%%  ",
"  !!!!!!    %%%%%%  ",
"  !!!$$$$$$$%%%%%%  ",
"  !!!$$$$$$$%%%%%%  ",
"   !!$$$$$$$%%%%%   ",
"    !$$$$$$$$$$$    ",
"      $$$$$$$$$     ",
"                    ",
"                    ",
};
