/* XPM */
/* $Id: pixmaped-text.xpm,v 1.1 1999/01/31 22:11:46 root Exp $ */
static char * pixmaped_text_xpm[] = {
"20 20 4 1",
"  c None",
"! c black",
"# c gray90",
"$ c gray75",
"                    ",
"                    ",
"                    ",
"  !!!!!!!!!!!!!!!!$ ",
"  !!!!!!!!!!!!!!!!$ ",
"  !!#####!!$$$$$!!$ ",
"  ##    #!!$    $$$ ",
"        #!!$        ",
"        #!!$        ",
"        #!!$        ",
"        #!!$        ",
"        #!!$        ",
"        #!!$        ",
"        #!!$        ",
"        #!!$        ",
"       ##!!$        ",
"      #!!!!!!$      ",
"      #!!!!!!$      ",
"       $$$$$$$      ",
"                    ",
};
