/* XPM */
/* $Id: pixmaped-resize-F.xpm,v 1.3 1999/02/21 10:08:51 root Exp $ */
static char * pixmaped_resize_F_xpm[] = {
"32 32 5 1",
"  c None",
"! c black",
"# c #00AF00",
"$ c blue",
"% c white",
"                                ",
"                                ",
"                                ",
"                                ",
"                                ",
"           $        $           ",
"           $        $           ",
"           $        $           ",
"  !!!!!!!!!$!!!!!!!!$!!!!!!!!!  ",
"  !       #$%%%%%%%%$       #!  ",
"  !      ##$%%%%%%%%$      ##!  ",
"  !      ##$%%%%%%%%$      ##!  ",
"  !      ##$%%%%%%%%$      ##!  ",
"  !     ## $%%%%%%%%$     ## !  ",
"  !     ## $%%%%%%%%$     ## !  ",
"  !    ##  $%%%%%%%%$    ##  !  ",
"  !    ##  $%%%%%%%%$    ##  !  ",
"  !    ##  $%%%%%%%%$    ##  !  ",
"  !#  ##   $%%%%%%%%$#  ##   !  ",
"  !## ##   $%%%%%%%%$## ##   !  ",
"  ! ####   $%%%%%%%%$ ####   !  ",
"  !  ###   $%%%%%%%%$  ###   !  ",
"  !   ##   $%%%%%%%%$   ##   !  ",
"  !!!!!!!!!$!!!!!!!!$!!!!!!!!!  ",
"           $        $           ",
"           $        $           ",
"           $        $           ",
"                                ",
"                                ",
"                                ",
"                                ",
"                                ",
};
