/* XPM */
/* $Id: pixmaped-line.xpm,v 1.1 1999/02/03 21:11:17 root Exp $ */
static char * pixmaped_line_xpm[] = {
"20 20 4 1",
"  c None",
"! c black",
"# c white",
"$ c gray75",
"                    ",
"                    ",
"  !!$               ",
"  !!!$              ",
"  #!!!$             ",
"   #!!!$            ",
"    #!!!$           ",
"     #!!!$          ",
"      #!!!$         ",
"       #!!!$        ",
"        #!!!$       ",
"         #!!!$      ",
"          #!!!$     ",
"           #!!!$    ",
"            #!!!$   ",
"             #!!!$  ",
"              #!!!  ",
"               #!!  ",
"                    ",
"                    ",
};
